<svg width="78" height="62" viewBox="0 0 78 62" fill="none" xmlns="http://www.w3.org/2000/svg">
<path d="M45.5957 23.5352C45.5957 20.5137 43.4629 18.8457 39.7168 18.8457H32.8262V28.5801H38.6367C43.1211 28.5664 45.5957 26.7617 45.5957 23.5352ZM70.6836 21.7852C69.3848 17.5605 69.1934 12.3789 69.3438 8.37305C69.4941 4.20312 66.2402 0.375 61.8652 0.375H16.9121C12.5234 0.375 9.2832 4.2168 9.43359 8.37305C9.57031 12.3789 9.39258 17.5605 8.09375 21.7852C6.78125 26.0234 4.58008 28.7031 0.957031 29.0449V32.9414C4.56641 33.2832 6.78125 35.9629 8.09375 40.2012C9.39258 44.4258 9.58398 49.6074 9.43359 53.6133C9.2832 57.7832 12.5371 61.6113 16.9121 61.6113H61.8516C66.2402 61.6113 69.4805 57.7695 69.3301 53.6133C69.1934 49.6074 69.3711 44.4258 70.6699 40.2012C71.9824 35.9629 74.1836 33.2832 77.793 32.9414V29.0449C74.1973 28.7031 71.9824 26.0234 70.6836 21.7852ZM41.043 47.2832H27.6582V14.7031H40.9746C46.8945 14.7031 50.7773 17.9023 50.7773 22.8242C50.7773 26.2832 48.166 29.373 44.8301 29.9062V30.084C49.3691 30.5762 52.418 33.7207 52.418 38.0547C52.418 43.8105 48.1387 47.2832 41.043 47.2832ZM39.6758 32.4219H32.8262V43.1406H39.9766C44.6523 43.1406 47.127 41.2676 47.127 37.7402C47.127 34.2266 44.584 32.4219 39.6758 32.4219Z" fill="white"/>
</svg>
