<?xml version="1.0" encoding="utf-8"?>
<!-- Generator: Adobe Illustrator 27.0.0, SVG Export Plug-In . SVG Version: 6.00 Build 0)  -->
<svg version="1.1" id="Слой_1" xmlns="http://www.w3.org/2000/svg" xmlns:xlink="http://www.w3.org/1999/xlink" x="0px" y="0px"
	 viewBox="0 0 353.9 438.6" style="enable-background:new 0 0 353.9 438.6;" xml:space="preserve">
<style type="text/css">
	.st0{fill:#D0D0D0;}
	.st1{fill:#B7B6B6;}
	.st2{fill:#EDEDED;}
</style>
<path class="st0" d="M227.4,164l-40,37.2l-37.1-74.9l19.2-43.1c4.8-8.6,12.8-8.7,17.6,0L227.4,164z"/>
<path class="st1" d="M187.4,201.2L37.7,340.4l112.5-214.1L187.4,201.2z"/>
<path class="st2" d="M271.2,107c7.2-6.8,14.5-4.5,16.4,5.2l38.9,226.3l-129,77.5c-4.5,2.5-16.5,3.5-16.5,3.5s-10.9-1.3-15.1-3.6
	L37.7,340.4L271.2,107z"/>
<path class="st0" d="M150.2,126.3L37.7,340.4L87.8,27.5c1.9-9.7,7.4-10.7,12.3-2.1L150.2,126.3z"/>
</svg>
