<?xml version="1.0" encoding="utf-8"?>
<!-- Generator: Adobe Illustrator 27.0.0, SVG Export Plug-In . SVG Version: 6.00 Build 0)  -->
<svg fill="#e75d03f2" version="1.1" id="Layer_1" xmlns="http://www.w3.org/2000/svg" xmlns:xlink="http://www.w3.org/1999/xlink" x="0px" y="0px"
	 viewBox="0 0 24 24" style="enable-background:new 0 0 24 24;" xml:space="preserve">
<g>
	<g>
		<g>
			<path d="M20,24H4c-2.2,0-4-1.8-4-4V4c0-2.2,1.8-4,4-4h16c2.2,0,4,1.8,4,4v16C24,22.2,22.2,24,20,24z M4,2C2.9,2,2,2.9,2,4v16
				c0,1.1,0.9,2,2,2h16c1.1,0,2-0.9,2-2V4c0-1.1-0.9-2-2-2H4z"/>
		</g>
	</g>
	<g>
		<g>
			<path d="M24,15.1c0,0.6-0.4,1-1,1L1,16.4c-0.6,0-1-0.4-1-1s0.4-1,1-1l22-0.3C23.6,14.1,24,14.5,24,15.1z"/>
		</g>
	</g>
	<g>
		<g>
			<g>
				<path d="M13,8.9c0,0.3-0.1,0.5-0.3,0.7c-0.4,0.4-1,0.4-1.4,0l-3-3c-0.4-0.4-0.4-1,0-1.4s1-0.4,1.4,0l3,3C12.9,8.4,13,8.6,13,8.9
					z"/>
			</g>
		</g>
		<g>
			<g>
				<path d="M16,5.9c0,0.3-0.1,0.5-0.3,0.7l-3,3c-0.4,0.4-1,0.4-1.4,0c-0.4-0.4-0.4-1,0-1.4l3-3c0.4-0.4,1-0.4,1.4,0
					C15.9,5.4,16,5.6,16,5.9z"/>
			</g>
		</g>
	</g>
</g>
</svg>
