<?xml version="1.0" encoding="utf-8"?>
<!-- Generator: Adobe Illustrator 27.0.0, SVG Export Plug-In . SVG Version: 6.00 Build 0)  -->
<svg version="1.1" id="Слой_1" xmlns="http://www.w3.org/2000/svg" xmlns:xlink="http://www.w3.org/1999/xlink" x="0px" y="0px"
	 viewBox="0 0 71 60" style="enable-background:new 0 0 71 60;" xml:space="preserve">
<style type="text/css">
	.st0{clip-path:url(#SVGID_00000134219731645985549090000002135719850770294936_);}
	.st1{fill-rule:evenodd;clip-rule:evenodd;fill:#E75D03;}
</style>
<g>
	<defs>
		<rect id="SVGID_1_" x="3.5" y="0.2" width="63" height="59.3"/>
	</defs>
	<clipPath id="SVGID_00000081631458341736741980000015502192693984799904_">
		<use xlink:href="#SVGID_1_"  style="overflow:visible;"/>
	</clipPath>
	<g style="clip-path:url(#SVGID_00000081631458341736741980000015502192693984799904_);">
		<path class="st1" d="M35,0.6C17.3,0.6,3,14.1,3,30.7c0,13.3,9.2,24.6,21.9,28.6c1.6,0.3,2.2-0.6,2.2-1.4c0-0.7,0-3.1,0-5.6
			c-8,1.4-10.1-1.8-10.8-3.5c-0.4-0.9-1.9-3.5-3.3-4.3c-1.1-0.6-2.7-2,0-2c2.5,0,4.3,2.2,4.9,3.1c2.9,4.6,7.5,3.3,9.3,2.5
			c0.3-2,1.1-3.3,2-4c-7.1-0.8-14.6-3.4-14.6-14.9c0-3.3,1.2-6,3.3-8.1c-0.3-0.8-1.4-3.8,0.3-8c0,0,2.7-0.8,8.8,3.1
			c2.6-0.7,5.3-1,8-1c2.7,0,5.4,0.3,8,1c6.1-3.9,8.8-3.1,8.8-3.1c1.8,4.1,0.6,7.2,0.3,8c2,2.1,3.3,4.8,3.3,8.1
			c0,11.6-7.5,14.1-14.6,14.9C42,45,43,46.8,43,49.6c0,4,0,7.3,0,8.3c0,0.8,0.6,1.7,2.2,1.4C57.8,55.3,67,44,67,30.7
			C67,14.1,52.7,0.6,35,0.6z"/>
	</g>
</g>
</svg>
