<svg width="71" height="70" viewBox="0 0 71 70" fill="none" xmlns="http://www.w3.org/2000/svg">
<path fill-rule="evenodd" clip-rule="evenodd" d="M69.0166 51.9566L68.7004 52.7789C63.3127 63.2726 53.762 69.7125 40.1403 69.9943C33.7751 70.1265 27.7032 68.4935 23.7415 66.7168C15.1855 62.8758 7.99233 55.7459 4.06511 48.1329C-1.56985 37.2195 -2.58759 22.0339 9.13082 10.6949C9.30907 10.6949 7.71058 13.1559 7.88883 13.1559L7.56683 14.2082C-0.879857 40.6465 25.1387 63.3013 50.427 60.7138C56.5105 60.0813 64.2614 56.7521 69.0166 51.9566Z" fill="white"/>
<path fill-rule="evenodd" clip-rule="evenodd" d="M53.7102 41.026C60.0754 41.072 66.7166 38.0935 70.6553 33.919C67.2111 42.659 57.2407 48.2767 43.872 46.4884C32.6768 44.9877 22.0164 33.7235 20.9182 22.4364C20.1132 14.2197 22.9767 9.32071 27.6974 3.36951C26.0586 6.48023 25.4434 8.87797 25.2939 10.4075C23.4942 28.1863 39.4848 40.934 53.7102 41.026Z" fill="white"/>
<path fill-rule="evenodd" clip-rule="evenodd" d="M70.0171 18.9576C69.0281 21.2288 63.3357 25.5126 60.8172 26.0473C50.8583 28.169 44.4816 23.4483 41.1408 18.0721C40.6463 17.2671 39.7263 15.0764 39.5596 14.5186C38.2659 10.1142 38.8581 3.44998 42.7221 0C41.5606 3.27748 41.3881 7.0897 42.0033 9.56793C42.3771 11.0629 43.5041 13.6792 44.6368 15.3236C46.6953 18.3194 48.0005 19.0439 50.6513 20.6366C51.8415 21.3496 53.1237 21.9246 53.6757 22.0856C56.1827 22.8216 61.4784 24.7651 70.0171 18.9576Z" fill="white"/>
</svg>
