<svg width="62" height="62" viewBox="0 0 62 62" fill="none" xmlns="http://www.w3.org/2000/svg">
<path d="M0 0V61.25H61.25V0H0ZM33.332 47.7695C33.332 53.7305 29.832 56.4512 24.7324 56.4512C20.125 56.4512 17.459 54.0723 16.0918 51.1875L20.7812 48.3574C21.6836 49.957 22.5039 51.3105 24.4863 51.3105C26.373 51.3105 27.5762 50.5723 27.5762 47.6875V28.123H33.332V47.7695ZM46.9492 56.4512C41.6035 56.4512 38.1445 53.9082 36.4629 50.5723L41.1523 47.8652C42.3828 49.875 43.9961 51.3652 46.8262 51.3652C49.2051 51.3652 50.7363 50.1758 50.7363 48.5215C50.7363 46.5527 49.1777 45.8555 46.5391 44.6934L45.1035 44.0781C40.9473 42.3145 38.1992 40.0859 38.1992 35.3965C38.1992 31.0762 41.4941 27.7949 46.6211 27.7949C50.2852 27.7949 52.9102 29.0664 54.7969 32.4023L50.3125 35.2734C49.3281 33.5098 48.2617 32.8125 46.6074 32.8125C44.9258 32.8125 43.8594 33.8789 43.8594 35.2734C43.8594 36.9961 44.9258 37.6934 47.4004 38.7734L48.8359 39.3887C53.7305 41.4805 56.4785 43.627 56.4785 48.4395C56.4785 53.6074 52.4043 56.4512 46.9492 56.4512Z" fill="white"/>
</svg>
