<?xml version="1.0" encoding="utf-8"?>
<!-- Generator: Adobe Illustrator 27.0.0, SVG Export Plug-In . SVG Version: 6.00 Build 0)  -->
<svg version="1.1" id="Capa_1" xmlns="http://www.w3.org/2000/svg" xmlns:xlink="http://www.w3.org/1999/xlink" x="0px" y="0px"
	 viewBox="0 0 500 550" style="enable-background:new 0 0 500 550;" xml:space="preserve">
<style type="text/css">
	.st0{fill:#FFFFFF;}
</style>
<g>
	<path class="st0" d="M406.8,123.7c-6.9-2.6-14.2-3.9-21.8-3.9c-25.5,0-47.9,14.9-55.6,37.1l0,0c-1.3,3.4-3.5,9.2-7.5,20l-16.6,44.8
		c-0.3,0.9-0.6,1.7-1,2.6c-1.3-0.6-2.6-1.1-4-1.6c-6.9-2.6-14-3.8-21.3-3.8c-12.3,0-24.1,3.8-33.9,10.3c-4.3-3-9-5.4-14-7.3
		c-6.9-2.6-14-3.8-21.3-3.8c-12.7,0-24.8,4-34.8,10.9c-4.1-2.7-8.4-4.9-13-6.7c-6.9-2.6-14-3.8-21.3-3.8c-25.5,0-48.5,16-57.4,39.9
		l-18.1,48.5c-13.7,36.8-15.6,72.6-5.5,103.6c14.3,44.2,50.8,77.4,108.6,98.9c35.2,13.1,65.8,19.5,93.6,19.5
		c39.7,0,72.8-13.4,98.3-40c24.4-25.4,37.7-59,45.5-82c8.5-25.1,0.3-48.8-14.8-64.2c21.6-58.2,52.1-140.2,52.1-140.2
		c5.7-15.3,5.1-32-1.7-46.8C434.4,140.7,422.2,129.4,406.8,123.7z M411.9,191c0,0-71.8,193-73.2,196.8c-1.5,3.9,1,5.3,1.8,5.6
		c0.3,0.1,0.7,0.2,1.3,0.2c1.2,0,2.9-0.6,3.9-3.3l11.6-31.1c11.9,4.4,22.8,19.9,17,37.1c-18.1,53.2-45.8,99.6-112.6,99.6
		c-22.5,0-49.5-5.3-82-17.4C71.5,438.2,79.2,363.6,96,318.4l18.1-48.6c4.2-11.4,15-18.4,26.4-18.4c3.3,0,6.6,0.6,9.8,1.8
		c12.9,4.8,22.5,18.9,18,31l-0.6,1.5c-0.8,2.3,0.3,4.8,2.6,5.7c0.5,0.2,1,0.3,1.5,0.3c1.8,0,3.5-1.1,4.1-2.9l7.3-19.4
		c4.2-11.4,15-18.4,26.4-18.4c3.3,0,6.6,0.6,9.8,1.8c13.3,4.9,22.8,19,17.8,32.3l-0.4,1.1c-0.9,2.3,0.3,4.9,2.7,5.8
		c0.5,0.2,1.1,0.3,1.6,0.3c1.8,0,3.6-1.1,4.2-2.9l7.1-19.1c4.2-11.4,15-18.4,26.4-18.4c3.3,0,6.6,0.6,9.8,1.8
		c14.5,5.4,21.9,21.3,16.8,35.8l-0.5,1.3c-0.9,2.4,0.3,5,2.7,5.9c0.5,0.2,1.1,0.3,1.6,0.3c1.9,0,3.6-1.1,4.3-3l1.9-5
		c0,0,0-0.1,0-0.2c8.9-23.9,44.9-121,44.9-121c3.3-9.4,13.8-15,24.5-15c3.5,0,7,0.6,10.3,1.8C409.9,160.1,417.4,176.4,411.9,191z"/>
</g>
</svg>
