<?xml version="1.0" encoding="utf-8"?>
<!-- Generator: Adobe Illustrator 27.0.0, SVG Export Plug-In . SVG Version: 6.00 Build 0)  -->
<svg version="1.1" id="Слой_1" xmlns="http://www.w3.org/2000/svg" xmlns:xlink="http://www.w3.org/1999/xlink" x="0px" y="0px"
	 viewBox="0 0 71 60" style="enable-background:new 0 0 71 60;" xml:space="preserve">
<style type="text/css">
	.st0{fill:none;stroke:#E75D03;stroke-width:5;stroke-linecap:round;stroke-linejoin:round;stroke-miterlimit:133.3333;}
</style>
<path class="st0" d="M29.6,3.1v4.1c0,1.7,0,2.5,0.3,3.2c0.3,0.6,0.7,1,1.2,1.2c0.7,0.3,1.5,0.3,3.2,0.3h2.3c1.7,0,2.5,0,3.2-0.3
	c0.6-0.3,1-0.7,1.2-1.2c0.3-0.7,0.3-1.5,0.3-3.2V3.1 M27.1,56.9h16.7c3.3,0,5,0,6.3-0.7c1.1-0.6,2.1-1.5,2.6-2.6
	c0.7-1.2,0.7-2.9,0.7-6.3V12.6c0-3.3,0-5-0.7-6.3c-0.6-1.1-1.5-2.1-2.6-2.6C48.9,3,47.2,3,43.8,3H27.1c-3.3,0-5,0-6.3,0.7
	c-1.1,0.6-2.1,1.5-2.6,2.6c-0.7,1.2-0.7,2.9-0.7,6.3v34.6c0,3.3,0,5,0.7,6.3c0.6,1.1,1.5,2.1,2.6,2.6C22.1,56.9,23.8,56.9,27.1,56.9
	z"/>
</svg>
