<?xml version="1.0" encoding="utf-8"?>
<!-- Generator: Adobe Illustrator 27.0.0, SVG Export Plug-In . SVG Version: 6.00 Build 0)  -->
<svg version="1.1" id="Слой_1" xmlns:v="https://vecta.io/nano"
	 xmlns="http://www.w3.org/2000/svg" xmlns:xlink="http://www.w3.org/1999/xlink" x="0px" y="0px" viewBox="0 0 203 202"
	 style="enable-background:new 0 0 203 202;" xml:space="preserve">
<style type="text/css">
	.st0{fill-rule:evenodd;clip-rule:evenodd;fill:#FFFFFF;}
</style>
<path class="st0" d="M156,16.5h-35.7c-2.6-8.2-10.2-13.7-18.8-13.7S85.3,8.4,82.7,16.5H47c-14.1,0-25.5,11.3-25.5,25.3v132
	c0,14,11.4,25.3,25.5,25.3H156c14.1,0,25.5-11.3,25.5-25.3v-132C181.5,27.9,170.1,16.5,156,16.5L156,16.5z M84.5,21.1
	c1.1,0,2.1-0.7,2.3-1.8c1.5-6.9,7.7-11.9,14.8-11.9c7.1,0,13.3,4.9,14.8,11.9c0.2,1.1,1.2,1.8,2.3,1.8h12.5v15.1
	c0,3.8-3.1,6.9-6.9,6.9H78.9c-3.8,0-6.9-3.1-6.9-6.9V21.1L84.5,21.1L84.5,21.1z M176.9,173.9c0,11.4-9.3,20.7-20.8,20.7H47
	c-11.5,0-20.8-9.3-20.8-20.7v-132c0-11.4,9.3-20.7,20.8-20.7h20.4v15.1c0,6.4,5.2,11.5,11.6,11.5h45.1c6.4,0,11.6-5.2,11.6-11.5
	V21.1H156c11.5,0,20.8,9.3,20.8,20.7L176.9,173.9L176.9,173.9z M151.5,91.8h-40.7c-1.3,0-2.3,1-2.3,2.3l0,0c0,1.3,1,2.3,2.3,2.3l0,0
	h40.7c1.3,0,2.3-1,2.3-2.3l0,0C153.8,92.8,152.8,91.8,151.5,91.8L151.5,91.8L151.5,91.8z M91.3,91.8H50.6c-1.3,0-2.3,1-2.3,2.3l0,0
	c0,1.3,1,2.3,2.3,2.3l0,0h40.7c1.3,0,2.3-1,2.3-2.3l0,0C93.6,92.8,92.6,91.8,91.3,91.8L91.3,91.8C91.3,91.8,91.3,91.8,91.3,91.8z
	 M151.6,147.5h-40.9c-1.3,0-2.3,1-2.3,2.3l0,0c0,1.3,1,2.3,2.3,2.3l0,0h40.9c1.3,0,2.3-1,2.3-2.3l0,0
	C153.9,148.6,152.9,147.5,151.6,147.5L151.6,147.5L151.6,147.5L151.6,147.5z M91.4,147.5H50.6c-1.3,0-2.3,1-2.3,2.3l0,0
	c0,1.3,1,2.3,2.3,2.3l0,0h40.9c1.3,0,2.3-1,2.3-2.3l0,0C93.7,148.6,92.7,147.5,91.4,147.5L91.4,147.5
	C91.4,147.5,91.4,147.5,91.4,147.5z"/>
</svg>
