<svg width="70" height="62" viewBox="0 0 70 62" fill="none" xmlns="http://www.w3.org/2000/svg">
<path d="M57.1758 20.2266C56.4375 19.9805 55.6992 19.748 54.9609 19.5293C55.084 19.0234 55.1934 18.5176 55.3027 18.0117C56.9844 9.86328 55.877 3.31445 52.1445 1.1543C48.5488 -0.910157 42.6836 1.23633 36.75 6.4043C36.1621 6.91016 35.5879 7.44336 35.041 7.97656C34.6719 7.62109 34.2891 7.26562 33.9062 6.92383C27.6855 1.40039 21.4512 -0.923829 17.7188 1.25C14.1367 3.32812 13.0703 9.49414 14.5742 17.2051C14.7246 17.9707 14.8887 18.7227 15.0801 19.4883C14.2051 19.7344 13.3438 20.0078 12.5371 20.2949C5.23633 22.8242 0 26.8164 0 30.9453C0 35.2109 5.57813 39.4902 13.166 42.0879C13.7812 42.293 14.3965 42.498 15.0254 42.6758C14.8203 43.4961 14.6426 44.3027 14.4785 45.1367C13.043 52.7246 14.1641 58.7402 17.7461 60.8047C21.4375 62.9375 27.6445 60.75 33.6875 55.459C34.166 55.0352 34.6445 54.5977 35.123 54.1328C35.7246 54.7207 36.3535 55.2812 36.9824 55.8281C42.834 60.8594 48.6172 62.8965 52.1855 60.832C55.877 58.6992 57.0801 52.2324 55.5215 44.3574C55.3984 43.7559 55.2617 43.1406 55.1113 42.5117C55.5488 42.3887 55.9727 42.2519 56.3965 42.1152C64.2852 39.5039 70 35.2793 70 30.9453C70 26.8027 64.6133 22.7832 57.1758 20.2266ZM38.6777 8.61914C43.7637 4.18945 48.5078 2.45312 50.668 3.69726C52.9785 5.02344 53.8672 10.3828 52.418 17.4238C52.3223 17.8887 52.2266 18.3398 52.1035 18.791C49.0684 18.1074 45.9922 17.6152 42.9023 17.3418C41.125 14.7988 39.1836 12.3652 37.0781 10.082C37.6113 9.57617 38.1309 9.09766 38.6777 8.61914ZM22.8594 38.041C23.5566 39.2305 24.2676 40.4199 25.0195 41.582C22.8867 41.3496 20.7676 41.0078 18.6758 40.5566C19.2773 38.5879 20.0293 36.5508 20.9043 34.4727C21.5332 35.6758 22.1758 36.8652 22.8594 38.041ZM18.7168 21.5937C20.6855 21.1562 22.7773 20.8008 24.9512 20.5273C24.2266 21.6621 23.5156 22.8242 22.8457 24C22.1758 25.1621 21.5195 26.3516 20.9043 27.5547C20.043 25.5176 19.3184 23.5215 18.7168 21.5937ZM22.4629 31.0137C23.3652 29.127 24.3496 27.2812 25.3887 25.4629C26.4277 23.6445 27.5488 21.8809 28.7246 20.1445C30.7754 19.9941 32.8672 19.9121 35 19.9121C37.1328 19.9121 39.2383 19.9941 41.2754 20.1445C42.4375 21.8672 43.5449 23.6309 44.5977 25.4355C45.6504 27.2402 46.6348 29.0859 47.5645 30.959C46.6484 32.8457 45.6641 34.7051 44.6113 36.5371C43.5723 38.3555 42.4648 40.1191 41.3027 41.8691C39.2656 42.0195 37.1465 42.0879 35 42.0879C32.8535 42.0879 30.7754 42.0195 28.7656 41.8965C27.5762 40.1602 26.4551 38.3828 25.4023 36.5645C24.3496 34.7461 23.3789 32.9004 22.4629 31.0137ZM47.1543 38.0137C47.8516 36.8105 48.5078 35.5938 49.1504 34.3633C50.0254 36.3457 50.791 38.3555 51.4609 40.4199C49.3418 40.8984 47.1953 41.2676 45.0352 41.5137C45.7734 40.3652 46.4707 39.1894 47.1543 38.0137ZM49.123 27.5547C48.4805 26.3516 47.8242 25.1484 47.1406 23.9727C46.4707 22.8105 45.7734 21.6621 45.0488 20.5273C47.25 20.8008 49.3555 21.1699 51.3242 21.6211C50.6953 23.6445 49.957 25.6133 49.123 27.5547ZM35.0273 12.1738C36.4629 13.7324 37.8164 15.373 39.0742 17.0684C36.3672 16.9453 33.6465 16.9453 30.9395 17.0684C32.2793 15.3047 33.6602 13.6641 35.0273 12.1738ZM19.168 3.79297C21.4648 2.45312 26.5645 4.36719 31.9375 9.125C32.2793 9.42578 32.6211 9.75391 32.9766 10.082C30.8574 12.3652 28.9023 14.7988 27.1113 17.3418C24.0215 17.6152 20.959 18.0937 17.9238 18.7637C17.7461 18.0664 17.5957 17.3555 17.4453 16.6445C16.1602 10.0273 17.0078 5.03711 19.168 3.79297ZM15.8184 39.832C15.2441 39.668 14.6836 39.4902 14.123 39.2988C11.2109 38.3828 7.90234 36.9336 5.50977 35.0332C4.12891 34.0762 3.19922 32.5996 2.93945 30.9453C2.93945 28.4434 7.25977 25.2441 13.4941 23.0703C14.2734 22.7969 15.0664 22.5508 15.8594 22.3184C16.7891 25.2852 17.9102 28.1973 19.209 31.0137C17.8965 33.8711 16.7617 36.8242 15.8184 39.832ZM31.7598 53.2305C29.5039 55.2949 26.8926 56.9355 24.0488 58.0566C22.5312 58.7812 20.7812 58.8496 19.2227 58.2344C17.0488 56.9766 16.1465 52.1504 17.377 45.6562C17.5273 44.8906 17.6914 44.125 17.8828 43.373C20.9453 44.0293 24.0352 44.4805 27.166 44.7129C28.9707 47.2695 30.9531 49.7168 33.0723 52.0137C32.6348 52.4375 32.1973 52.8477 31.7598 53.2305ZM35.1094 49.9082C33.7148 48.4043 32.3203 46.7363 30.9668 44.9453C32.2793 45 33.6328 45.0273 35 45.0273C36.4082 45.0273 37.7891 45 39.1562 44.9316C37.8984 46.668 36.5449 48.3223 35.1094 49.9082ZM52.9785 54.0098C52.8555 55.6777 52.0352 57.2363 50.7227 58.2891C48.5488 59.5469 43.9141 57.9062 38.9102 53.6133C38.3359 53.1211 37.7617 52.5879 37.1738 52.041C39.2656 49.7305 41.1934 47.2832 42.9434 44.7129C46.0742 44.4531 49.1914 43.9746 52.2676 43.2773C52.4043 43.8379 52.5273 44.3984 52.6367 44.9453C53.3066 47.8984 53.416 50.9746 52.9785 54.0098ZM55.4668 39.3125C55.084 39.4355 54.7012 39.5586 54.3047 39.668C53.3477 36.6875 52.1719 33.7754 50.8184 30.9453C52.1309 28.1562 53.2383 25.2852 54.168 22.3457C54.8789 22.5508 55.5625 22.7695 56.2188 22.9883C62.5898 25.1758 67.0605 28.4297 67.0605 30.918C67.0605 33.5977 62.2891 37.0566 55.4668 39.3125ZM35 37.2617C38.459 37.2617 41.2617 34.459 41.2617 31C41.2617 27.541 38.459 24.7383 35 24.7383C31.541 24.7383 28.7383 27.541 28.7383 31C28.7383 34.459 31.541 37.2617 35 37.2617Z" fill="white"/>
</svg>
