<?xml version="1.0" encoding="utf-8"?>
<!-- Generator: Adobe Illustrator 27.0.0, SVG Export Plug-In . SVG Version: 6.00 Build 0)  -->
<svg version="1.1" id="Слой_1" xmlns="http://www.w3.org/2000/svg" xmlns:xlink="http://www.w3.org/1999/xlink" x="0px" y="0px"
	 viewBox="0 0 500 550" style="enable-background:new 0 0 500 550;" xml:space="preserve">
<style type="text/css">
	.st0{fill:#FFFFFF;}
</style>
<path class="st0" d="M444.7,306.9l-18.2-48.6c-8.9-23.8-31.9-39.9-57.4-39.9c-7.3,0-14.5,1.3-21.3,3.8c-4.6,1.7-9,4-13,6.7
	c-10-7-22.1-10.9-34.8-10.9c-7.3,0-14.5,1.3-21.3,3.8c-5,1.9-9.7,4.3-14,7.3c-9.9-6.6-21.6-10.3-33.9-10.3c-7.3,0-14.5,1.3-21.3,3.8
	c-1.4,0.5-2.7,1-4,1.6c-0.3-0.9-0.7-1.8-1-2.7l-16.6-44.7c-4-10.8-6.2-16.6-7.5-20l0,0c-7.8-22.2-30-37.1-55.4-37.1l0,0
	c-7.6,0-15,1.3-22,3.9c-15.3,5.7-27.5,17-34.3,31.9S61.3,187,67,202.3c0,0,30.5,82.1,52.1,140.2c-15.1,15.4-23.3,39.1-14.8,64.2
	c7.8,23,21.1,56.6,45.5,82c25.5,26.5,58.6,40,98.3,40c27.7,0,58.3-6.4,93.6-19.5c57.8-21.5,94.3-54.8,108.6-98.9
	C460.3,379.4,458.4,343.6,444.7,306.9z M330.1,478.4c-32.6,12.1-59.5,17.4-82,17.4c-66.7,0-94.5-46.4-112.6-99.6
	c-5.8-17.2,5-32.6,17-37.1l11.6,31.1c1,2.7,2.7,3.3,3.9,3.3c0.6,0,1-0.1,1.3-0.2c0.8-0.3,3.3-1.7,1.8-5.6
	C169.6,384,97.9,191,97.9,191c-5.4-14.6,2-30.8,16.6-36.3c3.4-1.3,7-1.9,10.5-1.9c10.6,0,20.8,5.4,24.2,15c0,0,36,97.1,44.9,121
	c0,0.1,0,0.1,0,0.2l1.9,5c0.7,1.9,2.4,3,4.3,3c0.5,0,1.1-0.1,1.6-0.3c2.4-0.9,3.6-3.5,2.7-5.9l-0.5-1.3
	c-5.1-14.5,2.3-30.5,16.8-35.8c3.2-1.2,6.6-1.8,9.8-1.8c11.5,0,22.2,7,26.4,18.4l7.1,19.1c0.7,1.8,2.4,2.9,4.2,2.9
	c0.5,0,1.1-0.1,1.6-0.3c2.3-0.9,3.5-3.5,2.7-5.8l-0.4-1.1c-4.9-13.3,4.5-27.4,17.8-32.3c3.2-1.2,6.6-1.8,9.8-1.8
	c11.4,0,22.2,7,26.4,18.4l7.3,19.4c0.7,1.8,2.3,2.9,4.1,2.9c0.5,0,1-0.1,1.5-0.3c2.3-0.8,3.4-3.4,2.6-5.7l-0.6-1.5
	c-4.5-12.1,5.1-26.2,18-31c3.2-1.2,6.6-1.8,9.8-1.8c11.5,0,22.2,7,26.4,18.4l18.1,48.5C430.6,363.6,438.3,438.2,330.1,478.4z"/>
</svg>
