<svg width="88" height="66" viewBox="0 0 88 66" fill="none" xmlns="http://www.w3.org/2000/svg">
<path d="M41.2672 49.8055C41.1852 49.9532 41.2262 49.8875 41.2672 49.8055V49.8055ZM75.3279 37.911C72.5781 37.9101 69.865 38.5416 67.3982 39.7567C66.5916 38.1297 65.7576 36.7078 65.6209 35.6414C65.4568 34.3973 65.2791 33.659 65.4705 32.1825C65.6619 30.7059 66.5232 28.6141 66.5096 28.4637C66.4959 28.3133 66.3182 27.5614 64.5545 27.5477C62.7908 27.534 61.2732 27.8895 61.0969 28.3543C60.7854 29.2038 60.5431 30.0771 60.3723 30.9657C60.0578 32.5653 56.8463 38.2801 55.0279 41.2606C54.4264 40.0985 53.9205 39.0731 53.8111 38.2528C53.6471 37.0086 53.4693 36.2703 53.6607 34.7938C53.8521 33.3172 54.7135 31.2254 54.6998 31.075C54.6861 30.9246 54.5084 30.1727 52.7461 30.159C50.9838 30.1453 49.4648 30.5008 49.2871 30.9657C49.1094 31.4305 48.918 32.5243 48.5625 33.577C48.207 34.6297 43.9291 44.1453 42.8094 46.62C42.2352 47.8778 41.743 48.8895 41.3875 49.5731C41.3328 49.6825 41.2918 49.7508 41.2645 49.8055C41.3055 49.7371 41.3328 49.6688 41.3328 49.6961C41.032 50.284 40.8543 50.6121 40.8543 50.6121V50.6258C40.6219 51.0633 40.3621 51.4598 40.2391 51.4598C40.157 51.4598 39.9793 50.3114 40.2801 48.7391C40.9227 45.4305 42.4402 40.2899 42.4266 40.1121C42.4129 40.0164 42.7137 39.1278 41.4285 38.6493C40.1844 38.1981 39.7332 38.95 39.6238 38.95C39.5145 38.95 39.4324 39.2235 39.4324 39.2235C39.4324 39.2235 40.8133 33.4266 36.7814 33.4266C34.2658 33.4266 30.7658 36.1883 29.0459 38.6903C27.9658 39.2782 25.6279 40.5496 23.167 41.9032C22.2236 42.4227 21.2529 42.9559 20.3369 43.4617C20.2686 43.3934 20.2139 43.325 20.1455 43.2567C15.2523 38.034 6.21797 34.3426 6.60078 27.3289C6.7375 24.7723 7.62617 18.0594 23.9736 9.91097C37.3721 3.23909 48.084 5.07112 49.9283 9.14534C52.5807 14.9559 44.2012 25.7703 30.2873 27.3289C24.984 27.9168 22.1963 25.866 21.499 25.1004C20.7744 24.2938 20.665 24.2528 20.3916 24.4032C19.9404 24.6492 20.2275 25.3602 20.3916 25.784C20.8018 26.8641 22.5107 28.7782 25.4215 29.7352C27.9781 30.5692 34.1961 31.034 41.7143 28.1219C50.1607 24.868 56.7355 15.8035 54.8078 8.21566C52.8445 0.504718 40.0586 -2.02458 27.9686 2.26839C20.7648 4.82503 12.9746 8.84456 7.37051 14.0809C0.713673 20.3153 -0.351366 25.743 0.086134 28.0125C1.64336 36.0653 12.7422 41.3153 17.1842 45.1981C16.9654 45.3211 16.7604 45.4305 16.5689 45.5399C14.3418 46.6473 5.88027 51.077 3.7625 55.7528C1.36992 61.0575 4.15899 64.8582 5.98965 65.3778C11.7031 66.9637 17.5533 64.1063 20.6965 59.4168C23.8396 54.7274 23.4582 48.6024 22.009 45.8133C21.9953 45.7723 21.968 45.745 21.9543 45.7039C22.5285 45.3621 23.1164 45.0203 23.7043 44.6785C24.8377 44.0086 25.9451 43.3934 26.9158 42.8602C26.3689 44.3368 25.9725 46.1141 25.7674 48.6844C25.5213 51.6922 26.7654 55.5887 28.3787 57.12C29.0896 57.7899 29.9496 57.8035 30.4828 57.8035C32.3695 57.8035 33.2172 56.245 34.1592 54.3856C35.3213 52.116 36.3467 49.4774 36.3467 49.4774C36.3467 49.4774 35.0615 56.6141 38.5752 56.6141C39.859 56.6141 41.1441 54.9598 41.7197 54.1121V54.1258C41.7197 54.1258 41.7471 54.0711 41.8154 53.9618C41.9521 53.7567 42.0205 53.6336 42.0205 53.6336V53.5926C42.54 52.7039 43.6748 50.6668 45.3824 47.3035C47.5973 42.9559 49.715 37.5282 49.715 37.5282C49.9197 38.7213 50.2029 39.8996 50.5627 41.0555C50.9455 42.3543 51.7522 43.7762 52.3947 45.1571C51.8752 45.868 51.5607 46.2782 51.5607 46.2782C51.5617 46.2887 51.5666 46.2984 51.5744 46.3055C51.1643 46.8524 50.6994 47.4403 50.2209 48.0145C48.4723 50.0926 46.3928 52.4715 46.1193 53.1551C45.7912 53.9618 45.8732 54.5633 46.5021 55.0282C46.967 55.3836 47.7873 55.4383 48.6473 55.37C50.2195 55.2606 51.327 54.8778 51.8602 54.6317C52.8431 54.2792 53.7722 53.7914 54.6205 53.1825C56.3295 51.9246 57.3686 50.12 57.2729 47.741C57.2182 46.4285 56.7943 45.116 56.2748 43.8856C56.4252 43.6668 56.5893 43.4344 56.7397 43.202C59.4453 39.2508 61.5371 34.9141 61.5371 34.9141C61.7418 36.1072 62.0249 37.2856 62.3848 38.4414C62.7129 39.5489 63.3541 40.7657 63.942 41.9551C61.4004 44.0196 59.8281 46.4121 59.2812 47.9844C58.2695 50.8965 59.0625 52.209 60.5527 52.5098C61.2227 52.6465 62.1797 52.3321 62.8906 52.0313C63.9465 51.6796 64.942 51.1678 65.8424 50.5137C67.5514 49.2559 69.2043 47.4922 69.0949 45.0996C69.0539 44.0196 68.7531 42.9395 68.3566 41.9004C70.5031 40.9981 73.2908 40.5059 76.8455 40.916C84.458 41.8047 85.9482 46.5625 85.6611 48.545C85.374 50.5274 83.7744 51.6348 83.2412 51.9629C82.708 52.291 82.5439 52.4141 82.585 52.6602C82.6533 53.0157 82.8994 53.002 83.3506 52.92C83.9795 52.8106 87.3414 51.3067 87.4918 47.6289C87.7105 42.9805 83.2412 37.8672 75.3238 37.9082L75.3279 37.911ZM16.651 57.6942C14.1367 60.4422 10.6094 61.4813 9.09317 60.6063C7.46621 59.6602 8.10879 55.616 11.2109 52.6875C13.0977 50.9102 15.5299 49.2696 17.1432 48.2578C17.5123 48.0391 18.0455 47.711 18.7018 47.3145C18.8111 47.2461 18.8658 47.2188 18.8658 47.2188C18.9889 47.1367 19.1256 47.0684 19.2623 46.9864C20.3957 51.1426 19.3033 54.8067 16.651 57.6914V57.6942ZM35.0205 45.1981C34.1455 47.3446 32.3012 52.8133 31.1801 52.5262C30.223 52.2801 29.6352 48.1102 30.9887 44.0086C31.6723 41.9442 33.1215 39.4832 33.9828 38.5262C35.3623 36.9813 36.8799 36.4891 37.2354 37.1043C37.7139 37.911 35.5674 43.8582 35.0205 45.1981ZM50.1963 52.4442C49.8271 52.6356 49.4854 52.7586 49.3213 52.6629C49.1982 52.5946 49.4717 52.3348 49.4717 52.3348C49.4717 52.3348 51.3721 50.2977 52.124 49.368C52.5615 48.8211 53.0674 48.1785 53.6129 47.4676C53.6129 47.536 53.6266 47.6043 53.6266 47.6864C53.6088 50.1336 51.2586 51.7879 50.1922 52.4442H50.1963ZM61.8967 49.7782C61.6232 49.5868 61.6643 48.9442 62.5803 46.9481C62.9357 46.1688 63.7547 44.8563 65.1779 43.5985C65.339 44.0746 65.4266 44.5725 65.4377 45.075C65.424 48.1512 63.2229 49.2996 61.898 49.7782H61.8967Z" fill="white"/>
</svg>
