<svg width="70" height="70" viewBox="0 0 70 70" fill="none" xmlns="http://www.w3.org/2000/svg">
<g clip-path="url(#clip0_106_6753)">
<path d="M0 35V0H70V70H0" fill="white"/>
<path d="M15.3474 35.1225V37.975H24.4474V63.875H30.9049V37.975H40.0049V35.175C40.0049 33.6 40.0049 32.3225 39.9349 32.2875C39.9349 32.235 34.3874 32.2175 27.6499 32.2175L15.3999 32.27V35.14L15.3474 35.1225ZM56.2449 32.2C58.0299 32.62 59.3949 33.425 60.6199 34.7025C61.2674 35.4025 62.2299 36.6275 62.2999 36.9425C62.2999 37.0475 59.2724 39.095 57.4349 40.2325C57.3649 40.285 57.0849 39.9875 56.8049 39.5325C55.8949 38.2375 54.9674 37.6775 53.5149 37.5725C51.4149 37.4325 50.0149 38.535 50.0149 40.3725C50.0149 40.9325 50.1199 41.2475 50.3299 41.7025C50.8024 42.665 51.6774 43.2425 54.3899 44.4325C59.3949 46.585 61.5649 48.0025 62.8774 50.0325C64.3649 52.3075 64.6974 55.8775 63.6999 58.555C62.5799 61.4775 59.8499 63.455 55.9474 64.1025C54.7224 64.3125 51.9224 64.2775 50.6099 64.05C47.8099 63.525 45.1324 62.125 43.4874 60.3225C42.8399 59.6225 41.5974 57.75 41.6674 57.6275L42.3324 57.2075L44.9574 55.685L46.9349 54.53L47.3899 55.1425C47.9674 56.0525 49.2624 57.2775 50.0149 57.6975C52.2899 58.87 55.3349 58.7125 56.8399 57.3475C57.4874 56.7525 57.7674 56.1225 57.7674 55.2475C57.7674 54.4425 57.6449 54.075 57.2424 53.4625C56.6824 52.6925 55.5624 52.0625 52.4124 50.6625C48.7899 49.1225 47.2499 48.1425 45.8149 46.6375C44.9924 45.7275 44.2399 44.31 43.8899 43.1375C43.6274 42.1225 43.5399 39.6375 43.7849 38.64C44.5374 35.14 47.1799 32.69 50.9599 31.99C52.1849 31.745 55.0724 31.85 56.2799 32.165L56.2449 32.2Z" fill="#464646"/>
</g>
<defs>
<clipPath id="clip0_106_6753">
<rect width="70" height="70" fill="white"/>
</clipPath>
</defs>
</svg>
